<?xml version="1.0" encoding="UTF-8" standalone="no"?>
<!DOCTYPE svg PUBLIC "-//W3C//DTD SVG 1.1//EN"
 "http://www.w3.org/Graphics/SVG/1.1/DTD/svg11.dtd">
<!-- Generated by graphviz version 2.38.0 (20140413.2041)
 -->
<!-- Title: ScriptDependencies Pages: 1 -->
<svg width="1304pt" height="1553pt"
 viewBox="0.00 0.00 1304.00 1553.00" xmlns="http://www.w3.org/2000/svg" xmlns:xlink="http://www.w3.org/1999/xlink">
<g id="graph0" class="graph" transform="scale(1 1) rotate(0) translate(4 1549)">
<title>ScriptDependencies</title>
<polygon fill="white" stroke="none" points="-4,4 -4,-1549 1300,-1549 1300,4 -4,4"/>
<!-- Add&#45;GitHubMetadata.ps1 -->
<g id="node1" class="node"><title>Add&#45;GitHubMetadata.ps1</title>
<polygon fill="mediumblue" stroke="azure" points="1220,-144 1028,-144 1028,-108 1226,-108 1226,-138 1220,-144"/>
<polyline fill="none" stroke="azure" points="1220,-144 1220,-138 "/>
<polyline fill="none" stroke="azure" points="1226,-138 1220,-138 "/>
<text text-anchor="middle" x="1127" y="-122.3" font-family="Lucida Console" font-size="14.00" fill="azure">Add&#45;GitHubMetadata.ps1</text>
</g>
<!-- Add&#45;CaptureToMatches.ps1 -->
<g id="node2" class="node"><title>Add&#45;CaptureToMatches.ps1</title>
<polygon fill="mediumblue" stroke="azure" points="866.5,-252 657.5,-252 657.5,-216 872.5,-216 872.5,-246 866.5,-252"/>
<polyline fill="none" stroke="azure" points="866.5,-252 866.5,-246 "/>
<polyline fill="none" stroke="azure" points="872.5,-246 866.5,-246 "/>
<text text-anchor="middle" x="765" y="-230.3" font-family="Lucida Console" font-size="14.00" fill="azure">Add&#45;CaptureToMatches.ps1</text>
</g>
<!-- Add&#45;GitHubMetadata.ps1&#45;&gt;Add&#45;CaptureToMatches.ps1 -->
<g id="edge1" class="edge"><title>Add&#45;GitHubMetadata.ps1&#45;&gt;Add&#45;CaptureToMatches.ps1</title>
<path fill="none" stroke="goldenrod" d="M1087.34,-144.14C1046.92,-162.44 981.235,-190.308 922,-207 909.456,-210.535 896.208,-213.686 882.946,-216.475"/>
<polygon fill="goldenrod" stroke="goldenrod" points="881.914,-213.114 872.813,-218.538 883.31,-219.973 881.914,-213.114"/>
</g>
<!-- Measure&#45;StandardDeviation.ps1 -->
<g id="node3" class="node"><title>Measure&#45;StandardDeviation.ps1</title>
<polygon fill="mediumblue" stroke="azure" points="887,-198 637,-198 637,-162 893,-162 893,-192 887,-198"/>
<polyline fill="none" stroke="azure" points="887,-198 887,-192 "/>
<polyline fill="none" stroke="azure" points="893,-192 887,-192 "/>
<text text-anchor="middle" x="765" y="-176.3" font-family="Lucida Console" font-size="14.00" fill="azure">Measure&#45;StandardDeviation.ps1</text>
</g>
<!-- Add&#45;GitHubMetadata.ps1&#45;&gt;Measure&#45;StandardDeviation.ps1 -->
<g id="edge2" class="edge"><title>Add&#45;GitHubMetadata.ps1&#45;&gt;Measure&#45;StandardDeviation.ps1</title>
<path fill="none" stroke="goldenrod" d="M1027.63,-140.756C987.069,-146.84 939.495,-153.976 896.117,-160.482"/>
<polygon fill="goldenrod" stroke="goldenrod" points="895.433,-157.046 886.062,-161.991 896.471,-163.968 895.433,-157.046"/>
</g>
<!-- Test&#45;FileTypeMagicNumber.ps1 -->
<g id="node4" class="node"><title>Test&#45;FileTypeMagicNumber.ps1</title>
<polygon fill="mediumblue" stroke="azure" points="883,-144 641,-144 641,-108 889,-108 889,-138 883,-144"/>
<polyline fill="none" stroke="azure" points="883,-144 883,-138 "/>
<polyline fill="none" stroke="azure" points="889,-138 883,-138 "/>
<text text-anchor="middle" x="765" y="-122.3" font-family="Lucida Console" font-size="14.00" fill="azure">Test&#45;FileTypeMagicNumber.ps1</text>
</g>
<!-- Add&#45;GitHubMetadata.ps1&#45;&gt;Test&#45;FileTypeMagicNumber.ps1 -->
<g id="edge3" class="edge"><title>Add&#45;GitHubMetadata.ps1&#45;&gt;Test&#45;FileTypeMagicNumber.ps1</title>
<path fill="none" stroke="goldenrod" d="M1027.63,-126C988.022,-126 941.726,-126 899.181,-126"/>
<polygon fill="goldenrod" stroke="goldenrod" points="899.026,-122.5 889.026,-126 899.026,-129.5 899.026,-122.5"/>
</g>
<!-- Remove&#45;Utf8Signature.ps1 -->
<g id="node5" class="node"><title>Remove&#45;Utf8Signature.ps1</title>
<polygon fill="mediumblue" stroke="azure" points="866.5,-90 657.5,-90 657.5,-54 872.5,-54 872.5,-84 866.5,-90"/>
<polyline fill="none" stroke="azure" points="866.5,-90 866.5,-84 "/>
<polyline fill="none" stroke="azure" points="872.5,-84 866.5,-84 "/>
<text text-anchor="middle" x="765" y="-68.3" font-family="Lucida Console" font-size="14.00" fill="azure">Remove&#45;Utf8Signature.ps1</text>
</g>
<!-- Add&#45;GitHubMetadata.ps1&#45;&gt;Remove&#45;Utf8Signature.ps1 -->
<g id="edge4" class="edge"><title>Add&#45;GitHubMetadata.ps1&#45;&gt;Remove&#45;Utf8Signature.ps1</title>
<path fill="none" stroke="goldenrod" d="M1027.63,-111.244C982.923,-104.538 929.694,-96.5541 882.956,-89.5434"/>
<polygon fill="goldenrod" stroke="goldenrod" points="883.187,-86.039 872.779,-88.0168 882.149,-92.9616 883.187,-86.039"/>
</g>
<!-- Use&#45;Command.ps1 -->
<g id="node6" class="node"><title>Use&#45;Command.ps1</title>
<polygon fill="mediumblue" stroke="azure" points="829,-36 695,-36 695,-0 835,-0 835,-30 829,-36"/>
<polyline fill="none" stroke="azure" points="829,-36 829,-30 "/>
<polyline fill="none" stroke="azure" points="835,-30 829,-30 "/>
<text text-anchor="middle" x="765" y="-14.3" font-family="Lucida Console" font-size="14.00" fill="azure">Use&#45;Command.ps1</text>
</g>
<!-- Add&#45;GitHubMetadata.ps1&#45;&gt;Use&#45;Command.ps1 -->
<g id="edge5" class="edge"><title>Add&#45;GitHubMetadata.ps1&#45;&gt;Use&#45;Command.ps1</title>
<path fill="none" stroke="goldenrod" d="M1087.34,-107.86C1046.92,-89.5602 981.235,-61.6922 922,-45 897.353,-38.0545 869.984,-32.5884 845.14,-28.4448"/>
<polygon fill="goldenrod" stroke="goldenrod" points="845.459,-24.9509 835.028,-26.807 844.34,-31.8609 845.459,-24.9509"/>
</g>
<!-- Test&#45;MagicNumber.ps1 -->
<g id="node56" class="node"><title>Test&#45;MagicNumber.ps1</title>
<polygon fill="mediumblue" stroke="azure" points="492,-144 316,-144 316,-108 498,-108 498,-138 492,-144"/>
<polyline fill="none" stroke="azure" points="492,-144 492,-138 "/>
<polyline fill="none" stroke="azure" points="498,-138 492,-138 "/>
<text text-anchor="middle" x="407" y="-122.3" font-family="Lucida Console" font-size="14.00" fill="azure">Test&#45;MagicNumber.ps1</text>
</g>
<!-- Test&#45;FileTypeMagicNumber.ps1&#45;&gt;Test&#45;MagicNumber.ps1 -->
<g id="edge43" class="edge"><title>Test&#45;FileTypeMagicNumber.ps1&#45;&gt;Test&#45;MagicNumber.ps1</title>
<path fill="none" stroke="goldenrod" d="M640.987,-126C597.633,-126 549.454,-126 508.211,-126"/>
<polygon fill="goldenrod" stroke="goldenrod" points="508.157,-122.5 498.157,-126 508.157,-129.5 508.157,-122.5"/>
</g>
<!-- Find&#45;NewestFile.ps1 -->
<g id="node23" class="node"><title>Find&#45;NewestFile.ps1</title>
<polygon fill="mediumblue" stroke="azure" points="487.5,-36 320.5,-36 320.5,-0 493.5,-0 493.5,-30 487.5,-36"/>
<polyline fill="none" stroke="azure" points="487.5,-36 487.5,-30 "/>
<polyline fill="none" stroke="azure" points="493.5,-30 487.5,-30 "/>
<text text-anchor="middle" x="407" y="-14.3" font-family="Lucida Console" font-size="14.00" fill="azure">Find&#45;NewestFile.ps1</text>
</g>
<!-- Use&#45;Command.ps1&#45;&gt;Find&#45;NewestFile.ps1 -->
<g id="edge45" class="edge"><title>Use&#45;Command.ps1&#45;&gt;Find&#45;NewestFile.ps1</title>
<path fill="none" stroke="goldenrod" d="M694.938,-18C640.557,-18 564.136,-18 503.833,-18"/>
<polygon fill="goldenrod" stroke="goldenrod" points="503.537,-14.5001 493.537,-18 503.537,-21.5001 503.537,-14.5001"/>
</g>
<!-- Add&#45;VsCodeDatabaseConnection.ps1 -->
<g id="node7" class="node"><title>Add&#45;VsCodeDatabaseConnection.ps1</title>
<polygon fill="mediumblue" stroke="azure" points="1261.5,-329 986.5,-329 986.5,-293 1267.5,-293 1267.5,-323 1261.5,-329"/>
<polyline fill="none" stroke="azure" points="1261.5,-329 1261.5,-323 "/>
<polyline fill="none" stroke="azure" points="1267.5,-323 1261.5,-323 "/>
<text text-anchor="middle" x="1127" y="-307.3" font-family="Lucida Console" font-size="14.00" fill="azure">Add&#45;VsCodeDatabaseConnection.ps1</text>
</g>
<!-- Get&#45;VSCodeSetting.ps1 -->
<g id="node8" class="node"><title>Get&#45;VSCodeSetting.ps1</title>
<polygon fill="mediumblue" stroke="azure" points="854,-360 670,-360 670,-324 860,-324 860,-354 854,-360"/>
<polyline fill="none" stroke="azure" points="854,-360 854,-354 "/>
<polyline fill="none" stroke="azure" points="860,-354 854,-354 "/>
<text text-anchor="middle" x="765" y="-338.3" font-family="Lucida Console" font-size="14.00" fill="azure">Get&#45;VSCodeSetting.ps1</text>
</g>
<!-- Add&#45;VsCodeDatabaseConnection.ps1&#45;&gt;Get&#45;VSCodeSetting.ps1 -->
<g id="edge6" class="edge"><title>Add&#45;VsCodeDatabaseConnection.ps1&#45;&gt;Get&#45;VSCodeSetting.ps1</title>
<path fill="none" stroke="goldenrod" d="M986.299,-323.03C947.638,-326.359 906.363,-329.913 870.114,-333.035"/>
<polygon fill="goldenrod" stroke="goldenrod" points="869.692,-329.558 860.029,-333.903 870.293,-336.532 869.692,-329.558"/>
</g>
<!-- Set&#45;VSCodeSetting.ps1 -->
<g id="node9" class="node"><title>Set&#45;VSCodeSetting.ps1</title>
<polygon fill="mediumblue" stroke="azure" points="854,-306 670,-306 670,-270 860,-270 860,-300 854,-306"/>
<polyline fill="none" stroke="azure" points="854,-306 854,-300 "/>
<polyline fill="none" stroke="azure" points="860,-300 854,-300 "/>
<text text-anchor="middle" x="765" y="-284.3" font-family="Lucida Console" font-size="14.00" fill="azure">Set&#45;VSCodeSetting.ps1</text>
</g>
<!-- Add&#45;VsCodeDatabaseConnection.ps1&#45;&gt;Set&#45;VSCodeSetting.ps1 -->
<g id="edge7" class="edge"><title>Add&#45;VsCodeDatabaseConnection.ps1&#45;&gt;Set&#45;VSCodeSetting.ps1</title>
<path fill="none" stroke="goldenrod" d="M986.299,-302.075C947.638,-299.605 906.363,-296.968 870.114,-294.652"/>
<polygon fill="goldenrod" stroke="goldenrod" points="870.232,-291.152 860.029,-294.007 869.786,-298.138 870.232,-291.152"/>
</g>
<!-- Get&#45;VSCodeSettingsFile.ps1 -->
<g id="node29" class="node"><title>Get&#45;VSCodeSettingsFile.ps1</title>
<polygon fill="mediumblue" stroke="azure" points="516.5,-360 291.5,-360 291.5,-324 522.5,-324 522.5,-354 516.5,-360"/>
<polyline fill="none" stroke="azure" points="516.5,-360 516.5,-354 "/>
<polyline fill="none" stroke="azure" points="522.5,-354 516.5,-354 "/>
<text text-anchor="middle" x="407" y="-338.3" font-family="Lucida Console" font-size="14.00" fill="azure">Get&#45;VSCodeSettingsFile.ps1</text>
</g>
<!-- Get&#45;VSCodeSetting.ps1&#45;&gt;Get&#45;VSCodeSettingsFile.ps1 -->
<g id="edge22" class="edge"><title>Get&#45;VSCodeSetting.ps1&#45;&gt;Get&#45;VSCodeSettingsFile.ps1</title>
<path fill="none" stroke="goldenrod" d="M670,-342C627.962,-342 577.814,-342 532.698,-342"/>
<polygon fill="goldenrod" stroke="goldenrod" points="532.554,-338.5 522.554,-342 532.554,-345.5 532.554,-338.5"/>
</g>
<!-- Set&#45;VSCodeSetting.ps1&#45;&gt;Get&#45;VSCodeSettingsFile.ps1 -->
<g id="edge41" class="edge"><title>Set&#45;VSCodeSetting.ps1&#45;&gt;Get&#45;VSCodeSettingsFile.ps1</title>
<path fill="none" stroke="goldenrod" d="M670,-302.258C627.962,-308.635 577.814,-316.242 532.698,-323.085"/>
<polygon fill="goldenrod" stroke="goldenrod" points="531.916,-319.664 522.554,-324.624 532.966,-326.585 531.916,-319.664"/>
</g>
<!-- Set&#45;JsonProperty.ps1 -->
<g id="node55" class="node"><title>Set&#45;JsonProperty.ps1</title>
<polygon fill="mediumblue" stroke="azure" points="492,-306 316,-306 316,-270 498,-270 498,-300 492,-306"/>
<polyline fill="none" stroke="azure" points="492,-306 492,-300 "/>
<polyline fill="none" stroke="azure" points="498,-300 492,-300 "/>
<text text-anchor="middle" x="407" y="-284.3" font-family="Lucida Console" font-size="14.00" fill="azure">Set&#45;JsonProperty.ps1</text>
</g>
<!-- Set&#45;VSCodeSetting.ps1&#45;&gt;Set&#45;JsonProperty.ps1 -->
<g id="edge42" class="edge"><title>Set&#45;VSCodeSetting.ps1&#45;&gt;Set&#45;JsonProperty.ps1</title>
<path fill="none" stroke="goldenrod" d="M670,-288C620.277,-288 559.208,-288 508.541,-288"/>
<polygon fill="goldenrod" stroke="goldenrod" points="508.224,-284.5 498.224,-288 508.224,-291.5 508.224,-284.5"/>
</g>
<!-- Export&#45;DatabaseObjectScript.ps1 -->
<g id="node10" class="node"><title>Export&#45;DatabaseObjectScript.ps1</title>
<polygon fill="mediumblue" stroke="azure" points="1257,-429 991,-429 991,-393 1263,-393 1263,-423 1257,-429"/>
<polyline fill="none" stroke="azure" points="1257,-429 1257,-423 "/>
<polyline fill="none" stroke="azure" points="1263,-423 1257,-423 "/>
<text text-anchor="middle" x="1127" y="-407.3" font-family="Lucida Console" font-size="14.00" fill="azure">Export&#45;DatabaseObjectScript.ps1</text>
</g>
<!-- Export&#45;DatabaseScripts.ps1 -->
<g id="node11" class="node"><title>Export&#45;DatabaseScripts.ps1</title>
<polygon fill="mediumblue" stroke="azure" points="874.5,-452 649.5,-452 649.5,-416 880.5,-416 880.5,-446 874.5,-452"/>
<polyline fill="none" stroke="azure" points="874.5,-452 874.5,-446 "/>
<polyline fill="none" stroke="azure" points="880.5,-446 874.5,-446 "/>
<text text-anchor="middle" x="765" y="-430.3" font-family="Lucida Console" font-size="14.00" fill="azure">Export&#45;DatabaseScripts.ps1</text>
</g>
<!-- Export&#45;DatabaseObjectScript.ps1&#45;&gt;Export&#45;DatabaseScripts.ps1 -->
<g id="edge8" class="edge"><title>Export&#45;DatabaseObjectScript.ps1&#45;&gt;Export&#45;DatabaseScripts.ps1</title>
<path fill="none" stroke="goldenrod" d="M990.925,-419.63C958.159,-421.723 923.272,-423.952 890.995,-426.014"/>
<polygon fill="goldenrod" stroke="goldenrod" points="890.37,-422.547 880.614,-426.677 890.816,-429.533 890.37,-422.547"/>
</g>
<!-- Install&#45;SqlServerModule.ps1 -->
<g id="node12" class="node"><title>Install&#45;SqlServerModule.ps1</title>
<polygon fill="mediumblue" stroke="azure" points="520.5,-433 287.5,-433 287.5,-397 526.5,-397 526.5,-427 520.5,-433"/>
<polyline fill="none" stroke="azure" points="520.5,-433 520.5,-427 "/>
<polyline fill="none" stroke="azure" points="526.5,-427 520.5,-427 "/>
<text text-anchor="middle" x="407" y="-411.3" font-family="Lucida Console" font-size="14.00" fill="azure">Install&#45;SqlServerModule.ps1</text>
</g>
<!-- Export&#45;DatabaseObjectScript.ps1&#45;&gt;Install&#45;SqlServerModule.ps1 -->
<g id="edge9" class="edge"><title>Export&#45;DatabaseObjectScript.ps1&#45;&gt;Install&#45;SqlServerModule.ps1</title>
<path fill="none" stroke="goldenrod" d="M990.745,-407.906C886.218,-406.012 737.928,-404.402 608,-407 584.972,-407.46 560.461,-408.219 536.779,-409.09"/>
<polygon fill="goldenrod" stroke="goldenrod" points="536.549,-405.596 526.688,-409.469 536.812,-412.591 536.549,-405.596"/>
</g>
<!-- Export&#45;DatabaseScripts.ps1&#45;&gt;Install&#45;SqlServerModule.ps1 -->
<g id="edge10" class="edge"><title>Export&#45;DatabaseScripts.ps1&#45;&gt;Install&#45;SqlServerModule.ps1</title>
<path fill="none" stroke="goldenrod" d="M649.4,-427.884C613.542,-425.97 573.735,-423.845 536.957,-421.883"/>
<polygon fill="goldenrod" stroke="goldenrod" points="536.843,-418.372 526.67,-421.334 536.47,-425.362 536.843,-418.372"/>
</g>
<!-- Export&#45;Server.ps1 -->
<g id="node13" class="node"><title>Export&#45;Server.ps1</title>
<polygon fill="mediumblue" stroke="azure" points="1199.5,-533 1048.5,-533 1048.5,-497 1205.5,-497 1205.5,-527 1199.5,-533"/>
<polyline fill="none" stroke="azure" points="1199.5,-533 1199.5,-527 "/>
<polyline fill="none" stroke="azure" points="1205.5,-527 1199.5,-527 "/>
<text text-anchor="middle" x="1127" y="-511.3" font-family="Lucida Console" font-size="14.00" fill="azure">Export&#45;Server.ps1</text>
</g>
<!-- Export&#45;WebConfiguration.ps1 -->
<g id="node14" class="node"><title>Export&#45;WebConfiguration.ps1</title>
<polygon fill="mediumblue" stroke="azure" points="878.5,-560 645.5,-560 645.5,-524 884.5,-524 884.5,-554 878.5,-560"/>
<polyline fill="none" stroke="azure" points="878.5,-560 878.5,-554 "/>
<polyline fill="none" stroke="azure" points="884.5,-554 878.5,-554 "/>
<text text-anchor="middle" x="765" y="-538.3" font-family="Lucida Console" font-size="14.00" fill="azure">Export&#45;WebConfiguration.ps1</text>
</g>
<!-- Export&#45;Server.ps1&#45;&gt;Export&#45;WebConfiguration.ps1 -->
<g id="edge11" class="edge"><title>Export&#45;Server.ps1&#45;&gt;Export&#45;WebConfiguration.ps1</title>
<path fill="none" stroke="goldenrod" d="M1048.33,-520.825C1003.57,-524.183 946.159,-528.488 894.813,-532.339"/>
<polygon fill="goldenrod" stroke="goldenrod" points="894.341,-528.865 884.63,-533.103 894.864,-535.845 894.341,-528.865"/>
</g>
<!-- Export&#45;SmbShare.ps1 -->
<g id="node15" class="node"><title>Export&#45;SmbShare.ps1</title>
<polygon fill="mediumblue" stroke="azure" points="845.5,-506 678.5,-506 678.5,-470 851.5,-470 851.5,-500 845.5,-506"/>
<polyline fill="none" stroke="azure" points="845.5,-506 845.5,-500 "/>
<polyline fill="none" stroke="azure" points="851.5,-500 845.5,-500 "/>
<text text-anchor="middle" x="765" y="-484.3" font-family="Lucida Console" font-size="14.00" fill="azure">Export&#45;SmbShare.ps1</text>
</g>
<!-- Export&#45;Server.ps1&#45;&gt;Export&#45;SmbShare.ps1 -->
<g id="edge12" class="edge"><title>Export&#45;Server.ps1&#45;&gt;Export&#45;SmbShare.ps1</title>
<path fill="none" stroke="goldenrod" d="M1048.33,-509.175C993.731,-505.08 920.325,-499.574 862.048,-495.204"/>
<polygon fill="goldenrod" stroke="goldenrod" points="861.955,-491.687 851.722,-494.429 861.432,-498.667 861.955,-491.687"/>
</g>
<!-- Format&#45;Certificate.ps1 -->
<g id="node18" class="node"><title>Format&#45;Certificate.ps1</title>
<polygon fill="mediumblue" stroke="azure" points="500,-560 308,-560 308,-524 506,-524 506,-554 500,-560"/>
<polyline fill="none" stroke="azure" points="500,-560 500,-554 "/>
<polyline fill="none" stroke="azure" points="506,-554 500,-554 "/>
<text text-anchor="middle" x="407" y="-538.3" font-family="Lucida Console" font-size="14.00" fill="azure">Format&#45;Certificate.ps1</text>
</g>
<!-- Export&#45;WebConfiguration.ps1&#45;&gt;Format&#45;Certificate.ps1 -->
<g id="edge14" class="edge"><title>Export&#45;WebConfiguration.ps1&#45;&gt;Format&#45;Certificate.ps1</title>
<path fill="none" stroke="goldenrod" d="M645.457,-542C603.782,-542 557.195,-542 516.397,-542"/>
<polygon fill="goldenrod" stroke="goldenrod" points="516.156,-538.5 506.156,-542 516.156,-545.5 516.156,-538.5"/>
</g>
<!-- Export&#45;TableMerge.ps1 -->
<g id="node16" class="node"><title>Export&#45;TableMerge.ps1</title>
<polygon fill="mediumblue" stroke="azure" points="1216,-884 1032,-884 1032,-848 1222,-848 1222,-878 1216,-884"/>
<polyline fill="none" stroke="azure" points="1216,-884 1216,-878 "/>
<polyline fill="none" stroke="azure" points="1222,-878 1216,-878 "/>
<text text-anchor="middle" x="1127" y="-862.3" font-family="Lucida Console" font-size="14.00" fill="azure">Export&#45;TableMerge.ps1</text>
</g>
<!-- Use&#45;SqlcmdParams.ps1 -->
<g id="node17" class="node"><title>Use&#45;SqlcmdParams.ps1</title>
<polygon fill="mediumblue" stroke="azure" points="850,-776 674,-776 674,-740 856,-740 856,-770 850,-776"/>
<polyline fill="none" stroke="azure" points="850,-776 850,-770 "/>
<polyline fill="none" stroke="azure" points="856,-770 850,-770 "/>
<text text-anchor="middle" x="765" y="-754.3" font-family="Lucida Console" font-size="14.00" fill="azure">Use&#45;SqlcmdParams.ps1</text>
</g>
<!-- Export&#45;TableMerge.ps1&#45;&gt;Use&#45;SqlcmdParams.ps1 -->
<g id="edge13" class="edge"><title>Export&#45;TableMerge.ps1&#45;&gt;Use&#45;SqlcmdParams.ps1</title>
<path fill="none" stroke="goldenrod" d="M1031.82,-854.934C1007.51,-850.974 981.569,-845.759 958,-839 905.903,-824.06 849.031,-798.868 810.813,-780.539"/>
<polygon fill="goldenrod" stroke="goldenrod" points="812.038,-777.243 801.512,-776.037 808.988,-783.544 812.038,-777.243"/>
</g>
<!-- Import&#45;Variables.ps1 -->
<g id="node36" class="node"><title>Import&#45;Variables.ps1</title>
<polygon fill="mediumblue" stroke="azure" points="492,-722 316,-722 316,-686 498,-686 498,-716 492,-722"/>
<polyline fill="none" stroke="azure" points="492,-722 492,-716 "/>
<polyline fill="none" stroke="azure" points="498,-716 492,-716 "/>
<text text-anchor="middle" x="407" y="-700.3" font-family="Lucida Console" font-size="14.00" fill="azure">Import&#45;Variables.ps1</text>
</g>
<!-- Use&#45;SqlcmdParams.ps1&#45;&gt;Import&#45;Variables.ps1 -->
<g id="edge46" class="edge"><title>Use&#45;SqlcmdParams.ps1&#45;&gt;Import&#45;Variables.ps1</title>
<path fill="none" stroke="goldenrod" d="M673.706,-744.304C623.197,-736.642 560.127,-727.075 508.111,-719.185"/>
<polygon fill="goldenrod" stroke="goldenrod" points="508.61,-715.721 498.198,-717.682 507.56,-722.642 508.61,-715.721"/>
</g>
<!-- Find&#45;DatabaseValue.ps1 -->
<g id="node19" class="node"><title>Find&#45;DatabaseValue.ps1</title>
<polygon fill="mediumblue" stroke="azure" points="500,-252 308,-252 308,-216 506,-216 506,-246 500,-252"/>
<polyline fill="none" stroke="azure" points="500,-252 500,-246 "/>
<polyline fill="none" stroke="azure" points="506,-246 500,-246 "/>
<text text-anchor="middle" x="407" y="-230.3" font-family="Lucida Console" font-size="14.00" fill="azure">Find&#45;DatabaseValue.ps1</text>
</g>
<!-- ConvertFrom&#45;DataRow.ps1 -->
<g id="node20" class="node"><title>ConvertFrom&#45;DataRow.ps1</title>
<polygon fill="mediumblue" stroke="azure" points="200,-225 0,-225 0,-189 206,-189 206,-219 200,-225"/>
<polyline fill="none" stroke="azure" points="200,-225 200,-219 "/>
<polyline fill="none" stroke="azure" points="206,-219 200,-219 "/>
<text text-anchor="middle" x="103" y="-203.3" font-family="Lucida Console" font-size="14.00" fill="azure">ConvertFrom&#45;DataRow.ps1</text>
</g>
<!-- Find&#45;DatabaseValue.ps1&#45;&gt;ConvertFrom&#45;DataRow.ps1 -->
<g id="edge15" class="edge"><title>Find&#45;DatabaseValue.ps1&#45;&gt;ConvertFrom&#45;DataRow.ps1</title>
<path fill="none" stroke="goldenrod" d="M307.949,-225.234C278.704,-222.619 246.424,-219.733 216.339,-217.044"/>
<polygon fill="goldenrod" stroke="goldenrod" points="216.501,-213.544 206.229,-216.14 215.877,-220.516 216.501,-213.544"/>
</g>
<!-- Stop&#45;ThrowError.ps1 -->
<g id="node21" class="node"><title>Stop&#45;ThrowError.ps1</title>
<polygon fill="mediumblue" stroke="azure" points="183.5,-333 16.5,-333 16.5,-297 189.5,-297 189.5,-327 183.5,-333"/>
<polyline fill="none" stroke="azure" points="183.5,-333 183.5,-327 "/>
<polyline fill="none" stroke="azure" points="189.5,-327 183.5,-327 "/>
<text text-anchor="middle" x="103" y="-311.3" font-family="Lucida Console" font-size="14.00" fill="azure">Stop&#45;ThrowError.ps1</text>
</g>
<!-- Find&#45;DatabaseValue.ps1&#45;&gt;Stop&#45;ThrowError.ps1 -->
<g id="edge16" class="edge"><title>Find&#45;DatabaseValue.ps1&#45;&gt;Stop&#45;ThrowError.ps1</title>
<path fill="none" stroke="goldenrod" d="M307.711,-246.734C285.889,-250.514 263.008,-255.229 242,-261 211.73,-269.315 178.965,-281.971 152.96,-292.941"/>
<polygon fill="goldenrod" stroke="goldenrod" points="151.524,-289.748 143.703,-296.895 154.274,-296.186 151.524,-289.748"/>
</g>
<!-- Find&#45;Indexes.ps1 -->
<g id="node22" class="node"><title>Find&#45;Indexes.ps1</title>
<polygon fill="mediumblue" stroke="azure" points="475.5,-198 332.5,-198 332.5,-162 481.5,-162 481.5,-192 475.5,-198"/>
<polyline fill="none" stroke="azure" points="475.5,-198 475.5,-192 "/>
<polyline fill="none" stroke="azure" points="481.5,-192 475.5,-192 "/>
<text text-anchor="middle" x="407" y="-176.3" font-family="Lucida Console" font-size="14.00" fill="azure">Find&#45;Indexes.ps1</text>
</g>
<!-- Find&#45;Indexes.ps1&#45;&gt;ConvertFrom&#45;DataRow.ps1 -->
<g id="edge17" class="edge"><title>Find&#45;Indexes.ps1&#45;&gt;ConvertFrom&#45;DataRow.ps1</title>
<path fill="none" stroke="goldenrod" d="M332.122,-186.605C297.338,-189.715 255.089,-193.492 216.45,-196.947"/>
<polygon fill="goldenrod" stroke="goldenrod" points="215.834,-193.488 206.186,-197.864 216.458,-200.46 215.834,-193.488"/>
</g>
<!-- Test&#45;NewerFile.ps1 -->
<g id="node24" class="node"><title>Test&#45;NewerFile.ps1</title>
<polygon fill="mediumblue" stroke="azure" points="179.5,-36 20.5,-36 20.5,-0 185.5,-0 185.5,-30 179.5,-36"/>
<polyline fill="none" stroke="azure" points="179.5,-36 179.5,-30 "/>
<polyline fill="none" stroke="azure" points="185.5,-30 179.5,-30 "/>
<text text-anchor="middle" x="103" y="-14.3" font-family="Lucida Console" font-size="14.00" fill="azure">Test&#45;NewerFile.ps1</text>
</g>
<!-- Find&#45;NewestFile.ps1&#45;&gt;Test&#45;NewerFile.ps1 -->
<g id="edge18" class="edge"><title>Find&#45;NewestFile.ps1&#45;&gt;Test&#45;NewerFile.ps1</title>
<path fill="none" stroke="goldenrod" d="M320.267,-18C281.365,-18 235.307,-18 195.713,-18"/>
<polygon fill="goldenrod" stroke="goldenrod" points="195.53,-14.5001 185.53,-18 195.53,-21.5001 195.53,-14.5001"/>
</g>
<!-- Find&#45;SqlDeprecatedLargeValueTypes.ps1 -->
<g id="node25" class="node"><title>Find&#45;SqlDeprecatedLargeValueTypes.ps1</title>
<polygon fill="mediumblue" stroke="azure" points="1282,-830 966,-830 966,-794 1288,-794 1288,-824 1282,-830"/>
<polyline fill="none" stroke="azure" points="1282,-830 1282,-824 "/>
<polyline fill="none" stroke="azure" points="1288,-824 1282,-824 "/>
<text text-anchor="middle" x="1127" y="-808.3" font-family="Lucida Console" font-size="14.00" fill="azure">Find&#45;SqlDeprecatedLargeValueTypes.ps1</text>
</g>
<!-- Find&#45;SqlDeprecatedLargeValueTypes.ps1&#45;&gt;Use&#45;SqlcmdParams.ps1 -->
<g id="edge19" class="edge"><title>Find&#45;SqlDeprecatedLargeValueTypes.ps1&#45;&gt;Use&#45;SqlcmdParams.ps1</title>
<path fill="none" stroke="goldenrod" d="M1005.88,-793.981C960.538,-787.181 909.481,-779.522 866.162,-773.024"/>
<polygon fill="goldenrod" stroke="goldenrod" points="866.594,-769.55 856.186,-771.528 865.556,-776.473 866.594,-769.55"/>
</g>
<!-- Get&#45;IisLog.ps1 -->
<g id="node26" class="node"><title>Get&#45;IisLog.ps1</title>
<polygon fill="mediumblue" stroke="azure" points="1187,-36 1061,-36 1061,-0 1193,-0 1193,-30 1187,-36"/>
<polyline fill="none" stroke="azure" points="1187,-36 1187,-30 "/>
<polyline fill="none" stroke="azure" points="1193,-30 1187,-30 "/>
<text text-anchor="middle" x="1127" y="-14.3" font-family="Lucida Console" font-size="14.00" fill="azure">Get&#45;IisLog.ps1</text>
</g>
<!-- Get&#45;IisLog.ps1&#45;&gt;Use&#45;Command.ps1 -->
<g id="edge20" class="edge"><title>Get&#45;IisLog.ps1&#45;&gt;Use&#45;Command.ps1</title>
<path fill="none" stroke="goldenrod" d="M1060.81,-18C1000.22,-18 909.857,-18 845.156,-18"/>
<polygon fill="goldenrod" stroke="goldenrod" points="845.001,-14.5001 835.001,-18 845.001,-21.5001 845.001,-14.5001"/>
</g>
<!-- Get&#45;SslDetails.ps1 -->
<g id="node27" class="node"><title>Get&#45;SslDetails.ps1</title>
<polygon fill="mediumblue" stroke="azure" points="1203.5,-938 1044.5,-938 1044.5,-902 1209.5,-902 1209.5,-932 1203.5,-938"/>
<polyline fill="none" stroke="azure" points="1203.5,-938 1203.5,-932 "/>
<polyline fill="none" stroke="azure" points="1209.5,-932 1203.5,-932 "/>
<text text-anchor="middle" x="1127" y="-916.3" font-family="Lucida Console" font-size="14.00" fill="azure">Get&#45;SslDetails.ps1</text>
</g>
<!-- Get&#45;EnumValues.ps1 -->
<g id="node28" class="node"><title>Get&#45;EnumValues.ps1</title>
<polygon fill="mediumblue" stroke="azure" points="841.5,-938 682.5,-938 682.5,-902 847.5,-902 847.5,-932 841.5,-938"/>
<polyline fill="none" stroke="azure" points="841.5,-938 841.5,-932 "/>
<polyline fill="none" stroke="azure" points="847.5,-932 841.5,-932 "/>
<text text-anchor="middle" x="765" y="-916.3" font-family="Lucida Console" font-size="14.00" fill="azure">Get&#45;EnumValues.ps1</text>
</g>
<!-- Get&#45;SslDetails.ps1&#45;&gt;Get&#45;EnumValues.ps1 -->
<g id="edge21" class="edge"><title>Get&#45;SslDetails.ps1&#45;&gt;Get&#45;EnumValues.ps1</title>
<path fill="none" stroke="goldenrod" d="M1044.31,-920C988.829,-920 915.373,-920 857.857,-920"/>
<polygon fill="goldenrod" stroke="goldenrod" points="857.677,-916.5 847.677,-920 857.677,-923.5 857.677,-916.5"/>
</g>
<!-- Get&#45;VSCodeSettingsFile.ps1&#45;&gt;Stop&#45;ThrowError.ps1 -->
<g id="edge23" class="edge"><title>Get&#45;VSCodeSettingsFile.ps1&#45;&gt;Stop&#45;ThrowError.ps1</title>
<path fill="none" stroke="goldenrod" d="M291.396,-331.754C261.245,-329.058 229.035,-326.179 199.975,-323.581"/>
<polygon fill="goldenrod" stroke="goldenrod" points="200.108,-320.079 189.836,-322.674 199.484,-327.051 200.108,-320.079"/>
</g>
<!-- Import&#45;Html.ps1 -->
<g id="node30" class="node"><title>Import&#45;Html.ps1</title>
<polygon fill="mediumblue" stroke="azure" points="1191,-1019 1057,-1019 1057,-983 1197,-983 1197,-1013 1191,-1019"/>
<polyline fill="none" stroke="azure" points="1191,-1019 1191,-1013 "/>
<polyline fill="none" stroke="azure" points="1197,-1013 1191,-1013 "/>
<text text-anchor="middle" x="1127" y="-997.3" font-family="Lucida Console" font-size="14.00" fill="azure">Import&#45;Html.ps1</text>
</g>
<!-- ConvertFrom&#45;Html.ps1 -->
<g id="node31" class="node"><title>ConvertFrom&#45;Html.ps1</title>
<polygon fill="mediumblue" stroke="azure" points="850,-1059 674,-1059 674,-1023 856,-1023 856,-1053 850,-1059"/>
<polyline fill="none" stroke="azure" points="850,-1059 850,-1053 "/>
<polyline fill="none" stroke="azure" points="856,-1053 850,-1053 "/>
<text text-anchor="middle" x="765" y="-1037.3" font-family="Lucida Console" font-size="14.00" fill="azure">ConvertFrom&#45;Html.ps1</text>
</g>
<!-- Import&#45;Html.ps1&#45;&gt;ConvertFrom&#45;Html.ps1 -->
<g id="edge24" class="edge"><title>Import&#45;Html.ps1&#45;&gt;ConvertFrom&#45;Html.ps1</title>
<path fill="none" stroke="goldenrod" d="M1056.59,-1008.71C1002.49,-1014.72 926.639,-1023.15 865.996,-1029.89"/>
<polygon fill="goldenrod" stroke="goldenrod" points="865.568,-1026.42 856.016,-1031 866.341,-1033.37 865.568,-1026.42"/>
</g>
<!-- Get&#45;Html.ps1 -->
<g id="node32" class="node"><title>Get&#45;Html.ps1</title>
<polygon fill="mediumblue" stroke="azure" points="817,-1005 707,-1005 707,-969 823,-969 823,-999 817,-1005"/>
<polyline fill="none" stroke="azure" points="817,-1005 817,-999 "/>
<polyline fill="none" stroke="azure" points="823,-999 817,-999 "/>
<text text-anchor="middle" x="765" y="-983.3" font-family="Lucida Console" font-size="14.00" fill="azure">Get&#45;Html.ps1</text>
</g>
<!-- Import&#45;Html.ps1&#45;&gt;Get&#45;Html.ps1 -->
<g id="edge25" class="edge"><title>Import&#45;Html.ps1&#45;&gt;Get&#45;Html.ps1</title>
<path fill="none" stroke="goldenrod" d="M1056.59,-998.301C992.235,-995.798 897.09,-992.098 833.391,-989.621"/>
<polygon fill="goldenrod" stroke="goldenrod" points="833.184,-986.11 823.055,-989.219 832.912,-993.105 833.184,-986.11"/>
</g>
<!-- Import&#45;VsCodeDatabaseConnections.ps1 -->
<g id="node33" class="node"><title>Import&#45;VsCodeDatabaseConnections.ps1</title>
<polygon fill="mediumblue" stroke="azure" points="916,-668 608,-668 608,-632 922,-632 922,-662 916,-668"/>
<polyline fill="none" stroke="azure" points="916,-668 916,-662 "/>
<polyline fill="none" stroke="azure" points="922,-662 916,-662 "/>
<text text-anchor="middle" x="765" y="-646.3" font-family="Lucida Console" font-size="14.00" fill="azure">Import&#45;VsCodeDatabaseConnections.ps1</text>
</g>
<!-- Get&#45;ConfigConnectionStringBuilders.ps1 -->
<g id="node34" class="node"><title>Get&#45;ConfigConnectionStringBuilders.ps1</title>
<polygon fill="mediumblue" stroke="azure" points="566,-668 242,-668 242,-632 572,-632 572,-662 566,-668"/>
<polyline fill="none" stroke="azure" points="566,-668 566,-662 "/>
<polyline fill="none" stroke="azure" points="572,-662 566,-662 "/>
<text text-anchor="middle" x="407" y="-646.3" font-family="Lucida Console" font-size="14.00" fill="azure">Get&#45;ConfigConnectionStringBuilders.ps1</text>
</g>
<!-- Import&#45;VsCodeDatabaseConnections.ps1&#45;&gt;Get&#45;ConfigConnectionStringBuilders.ps1 -->
<g id="edge26" class="edge"><title>Import&#45;VsCodeDatabaseConnections.ps1&#45;&gt;Get&#45;ConfigConnectionStringBuilders.ps1</title>
<path fill="none" stroke="goldenrod" d="M607.853,-650C599.327,-650 590.732,-650 582.149,-650"/>
<polygon fill="goldenrod" stroke="goldenrod" points="582.084,-646.5 572.084,-650 582.084,-653.5 582.084,-646.5"/>
</g>
<!-- Split&#45;FileName.ps1 -->
<g id="node35" class="node"><title>Split&#45;FileName.ps1</title>
<polygon fill="mediumblue" stroke="azure" points="483.5,-614 324.5,-614 324.5,-578 489.5,-578 489.5,-608 483.5,-614"/>
<polyline fill="none" stroke="azure" points="483.5,-614 483.5,-608 "/>
<polyline fill="none" stroke="azure" points="489.5,-608 483.5,-608 "/>
<text text-anchor="middle" x="407" y="-592.3" font-family="Lucida Console" font-size="14.00" fill="azure">Split&#45;FileName.ps1</text>
</g>
<!-- Import&#45;VsCodeDatabaseConnections.ps1&#45;&gt;Split&#45;FileName.ps1 -->
<g id="edge27" class="edge"><title>Import&#45;VsCodeDatabaseConnections.ps1&#45;&gt;Split&#45;FileName.ps1</title>
<path fill="none" stroke="goldenrod" d="M644.962,-631.944C597.612,-624.761 543.987,-616.627 499.74,-609.916"/>
<polygon fill="goldenrod" stroke="goldenrod" points="499.99,-606.414 489.578,-608.374 498.94,-613.334 499.99,-606.414"/>
</g>
<!-- Import&#45;VsCodeDatabaseConnections.ps1&#45;&gt;Import&#45;Variables.ps1 -->
<g id="edge28" class="edge"><title>Import&#45;VsCodeDatabaseConnections.ps1&#45;&gt;Import&#45;Variables.ps1</title>
<path fill="none" stroke="goldenrod" d="M644.962,-668.056C600.612,-674.784 550.757,-682.346 508.259,-688.792"/>
<polygon fill="goldenrod" stroke="goldenrod" points="507.549,-685.36 498.187,-690.32 508.599,-692.281 507.549,-685.36"/>
</g>
<!-- Invoke&#45;CommandWithParams.ps1 -->
<g id="node37" class="node"><title>Invoke&#45;CommandWithParams.ps1</title>
<polygon fill="mediumblue" stroke="azure" points="1245,-1140 1003,-1140 1003,-1104 1251,-1104 1251,-1134 1245,-1140"/>
<polyline fill="none" stroke="azure" points="1245,-1140 1245,-1134 "/>
<polyline fill="none" stroke="azure" points="1251,-1134 1245,-1134 "/>
<text text-anchor="middle" x="1127" y="-1118.3" font-family="Lucida Console" font-size="14.00" fill="azure">Invoke&#45;CommandWithParams.ps1</text>
</g>
<!-- Select&#45;DictionaryKeys.ps1 -->
<g id="node38" class="node"><title>Select&#45;DictionaryKeys.ps1</title>
<polygon fill="mediumblue" stroke="azure" points="870.5,-1167 653.5,-1167 653.5,-1131 876.5,-1131 876.5,-1161 870.5,-1167"/>
<polyline fill="none" stroke="azure" points="870.5,-1167 870.5,-1161 "/>
<polyline fill="none" stroke="azure" points="876.5,-1161 870.5,-1161 "/>
<text text-anchor="middle" x="765" y="-1145.3" font-family="Lucida Console" font-size="14.00" fill="azure">Select&#45;DictionaryKeys.ps1</text>
</g>
<!-- Invoke&#45;CommandWithParams.ps1&#45;&gt;Select&#45;DictionaryKeys.ps1 -->
<g id="edge29" class="edge"><title>Invoke&#45;CommandWithParams.ps1&#45;&gt;Select&#45;DictionaryKeys.ps1</title>
<path fill="none" stroke="goldenrod" d="M1002.86,-1131.24C965.454,-1134.04 924.393,-1137.12 887.117,-1139.92"/>
<polygon fill="goldenrod" stroke="goldenrod" points="886.42,-1136.46 876.71,-1140.7 886.944,-1143.44 886.42,-1136.46"/>
</g>
<!-- Format&#45;PSLiterals.ps1 -->
<g id="node39" class="node"><title>Format&#45;PSLiterals.ps1</title>
<polygon fill="mediumblue" stroke="azure" points="854,-1113 670,-1113 670,-1077 860,-1077 860,-1107 854,-1113"/>
<polyline fill="none" stroke="azure" points="854,-1113 854,-1107 "/>
<polyline fill="none" stroke="azure" points="860,-1107 854,-1107 "/>
<text text-anchor="middle" x="765" y="-1091.3" font-family="Lucida Console" font-size="14.00" fill="azure">Format&#45;PSLiterals.ps1</text>
</g>
<!-- Invoke&#45;CommandWithParams.ps1&#45;&gt;Format&#45;PSLiterals.ps1 -->
<g id="edge30" class="edge"><title>Invoke&#45;CommandWithParams.ps1&#45;&gt;Format&#45;PSLiterals.ps1</title>
<path fill="none" stroke="goldenrod" d="M1002.86,-1112.76C959.693,-1109.53 911.66,-1105.92 870.193,-1102.81"/>
<polygon fill="goldenrod" stroke="goldenrod" points="870.311,-1099.31 860.077,-1102.06 869.787,-1106.29 870.311,-1099.31"/>
</g>
<!-- Merge&#45;Json.ps1 -->
<g id="node40" class="node"><title>Merge&#45;Json.ps1</title>
<polygon fill="mediumblue" stroke="azure" points="1187,-1221 1061,-1221 1061,-1185 1193,-1185 1193,-1215 1187,-1221"/>
<polyline fill="none" stroke="azure" points="1187,-1221 1187,-1215 "/>
<polyline fill="none" stroke="azure" points="1193,-1215 1187,-1215 "/>
<text text-anchor="middle" x="1127" y="-1199.3" font-family="Lucida Console" font-size="14.00" fill="azure">Merge&#45;Json.ps1</text>
</g>
<!-- Merge&#45;PSObject.ps1 -->
<g id="node41" class="node"><title>Merge&#45;PSObject.ps1</title>
<polygon fill="mediumblue" stroke="azure" points="841.5,-1221 682.5,-1221 682.5,-1185 847.5,-1185 847.5,-1215 841.5,-1221"/>
<polyline fill="none" stroke="azure" points="841.5,-1221 841.5,-1215 "/>
<polyline fill="none" stroke="azure" points="847.5,-1215 841.5,-1215 "/>
<text text-anchor="middle" x="765" y="-1199.3" font-family="Lucida Console" font-size="14.00" fill="azure">Merge&#45;PSObject.ps1</text>
</g>
<!-- Merge&#45;Json.ps1&#45;&gt;Merge&#45;PSObject.ps1 -->
<g id="edge31" class="edge"><title>Merge&#45;Json.ps1&#45;&gt;Merge&#45;PSObject.ps1</title>
<path fill="none" stroke="goldenrod" d="M1060.81,-1203C1004.07,-1203 921.211,-1203 857.776,-1203"/>
<polygon fill="goldenrod" stroke="goldenrod" points="857.769,-1199.5 847.769,-1203 857.769,-1206.5 857.769,-1199.5"/>
</g>
<!-- New&#45;Jwt.ps1 -->
<g id="node42" class="node"><title>New&#45;Jwt.ps1</title>
<polygon fill="mediumblue" stroke="azure" points="1174.5,-1302 1073.5,-1302 1073.5,-1266 1180.5,-1266 1180.5,-1296 1174.5,-1302"/>
<polyline fill="none" stroke="azure" points="1174.5,-1302 1174.5,-1296 "/>
<polyline fill="none" stroke="azure" points="1180.5,-1296 1174.5,-1296 "/>
<text text-anchor="middle" x="1127" y="-1280.3" font-family="Lucida Console" font-size="14.00" fill="azure">New&#45;Jwt.ps1</text>
</g>
<!-- ConvertTo&#45;Base64.ps1 -->
<g id="node43" class="node"><title>ConvertTo&#45;Base64.ps1</title>
<polygon fill="mediumblue" stroke="azure" points="850,-1329 674,-1329 674,-1293 856,-1293 856,-1323 850,-1329"/>
<polyline fill="none" stroke="azure" points="850,-1329 850,-1323 "/>
<polyline fill="none" stroke="azure" points="856,-1323 850,-1323 "/>
<text text-anchor="middle" x="765" y="-1307.3" font-family="Lucida Console" font-size="14.00" fill="azure">ConvertTo&#45;Base64.ps1</text>
</g>
<!-- New&#45;Jwt.ps1&#45;&gt;ConvertTo&#45;Base64.ps1 -->
<g id="edge32" class="edge"><title>New&#45;Jwt.ps1&#45;&gt;ConvertTo&#45;Base64.ps1</title>
<path fill="none" stroke="goldenrod" d="M1073.27,-1287.95C1019.12,-1292.02 933.506,-1298.44 866.388,-1303.47"/>
<polygon fill="goldenrod" stroke="goldenrod" points="865.915,-1300 856.205,-1304.23 866.439,-1306.98 865.915,-1300"/>
</g>
<!-- Test&#45;Uri.ps1 -->
<g id="node44" class="node"><title>Test&#45;Uri.ps1</title>
<polygon fill="mediumblue" stroke="azure" points="817,-1275 707,-1275 707,-1239 823,-1239 823,-1269 817,-1275"/>
<polyline fill="none" stroke="azure" points="817,-1275 817,-1269 "/>
<polyline fill="none" stroke="azure" points="823,-1269 817,-1269 "/>
<text text-anchor="middle" x="765" y="-1253.3" font-family="Lucida Console" font-size="14.00" fill="azure">Test&#45;Uri.ps1</text>
</g>
<!-- New&#45;Jwt.ps1&#45;&gt;Test&#45;Uri.ps1 -->
<g id="edge33" class="edge"><title>New&#45;Jwt.ps1&#45;&gt;Test&#45;Uri.ps1</title>
<path fill="none" stroke="goldenrod" d="M1073.27,-1280.05C1009.74,-1275.28 902.899,-1267.27 833.43,-1262.06"/>
<polygon fill="goldenrod" stroke="goldenrod" points="833.272,-1258.54 823.038,-1261.28 832.749,-1265.52 833.272,-1258.54"/>
</g>
<!-- Read&#45;ChocolateySummary.ps1 -->
<g id="node45" class="node"><title>Read&#45;ChocolateySummary.ps1</title>
<polygon fill="mediumblue" stroke="azure" points="874.5,-722 649.5,-722 649.5,-686 880.5,-686 880.5,-716 874.5,-722"/>
<polyline fill="none" stroke="azure" points="874.5,-722 874.5,-716 "/>
<polyline fill="none" stroke="azure" points="880.5,-716 874.5,-716 "/>
<text text-anchor="middle" x="765" y="-700.3" font-family="Lucida Console" font-size="14.00" fill="azure">Read&#45;ChocolateySummary.ps1</text>
</g>
<!-- Read&#45;ChocolateySummary.ps1&#45;&gt;Import&#45;Variables.ps1 -->
<g id="edge34" class="edge"><title>Read&#45;ChocolateySummary.ps1&#45;&gt;Import&#45;Variables.ps1</title>
<path fill="none" stroke="goldenrod" d="M649.4,-704C603.954,-704 552.165,-704 508.24,-704"/>
<polygon fill="goldenrod" stroke="goldenrod" points="508.125,-700.5 498.125,-704 508.125,-707.5 508.125,-700.5"/>
</g>
<!-- Repair&#45;DatabaseConstraintNames.ps1 -->
<g id="node46" class="node"><title>Repair&#45;DatabaseConstraintNames.ps1</title>
<polygon fill="mediumblue" stroke="azure" points="1269.5,-776 978.5,-776 978.5,-740 1275.5,-740 1275.5,-770 1269.5,-776"/>
<polyline fill="none" stroke="azure" points="1269.5,-776 1269.5,-770 "/>
<polyline fill="none" stroke="azure" points="1275.5,-770 1269.5,-770 "/>
<text text-anchor="middle" x="1127" y="-754.3" font-family="Lucida Console" font-size="14.00" fill="azure">Repair&#45;DatabaseConstraintNames.ps1</text>
</g>
<!-- Repair&#45;DatabaseConstraintNames.ps1&#45;&gt;Use&#45;SqlcmdParams.ps1 -->
<g id="edge35" class="edge"><title>Repair&#45;DatabaseConstraintNames.ps1&#45;&gt;Use&#45;SqlcmdParams.ps1</title>
<path fill="none" stroke="goldenrod" d="M978.276,-758C940.567,-758 900.905,-758 866.204,-758"/>
<polygon fill="goldenrod" stroke="goldenrod" points="866.079,-754.5 856.079,-758 866.079,-761.5 866.079,-754.5"/>
</g>
<!-- Repair&#45;DatabaseUntrustedConstraints.ps1 -->
<g id="node47" class="node"><title>Repair&#45;DatabaseUntrustedConstraints.ps1</title>
<polygon fill="mediumblue" stroke="azure" points="1290,-722 958,-722 958,-686 1296,-686 1296,-716 1290,-722"/>
<polyline fill="none" stroke="azure" points="1290,-722 1290,-716 "/>
<polyline fill="none" stroke="azure" points="1296,-716 1290,-716 "/>
<text text-anchor="middle" x="1127" y="-700.3" font-family="Lucida Console" font-size="14.00" fill="azure">Repair&#45;DatabaseUntrustedConstraints.ps1</text>
</g>
<!-- Repair&#45;DatabaseUntrustedConstraints.ps1&#45;&gt;Use&#45;SqlcmdParams.ps1 -->
<g id="edge36" class="edge"><title>Repair&#45;DatabaseUntrustedConstraints.ps1&#45;&gt;Use&#45;SqlcmdParams.ps1</title>
<path fill="none" stroke="goldenrod" d="M1005.88,-722.019C960.538,-728.819 909.481,-736.478 866.162,-742.976"/>
<polygon fill="goldenrod" stroke="goldenrod" points="865.556,-739.527 856.186,-744.472 866.594,-746.45 865.556,-739.527"/>
</g>
<!-- Send&#45;MailMessageFile.ps1 -->
<g id="node48" class="node"><title>Send&#45;MailMessageFile.ps1</title>
<polygon fill="mediumblue" stroke="azure" points="1228.5,-1383 1019.5,-1383 1019.5,-1347 1234.5,-1347 1234.5,-1377 1228.5,-1383"/>
<polyline fill="none" stroke="azure" points="1228.5,-1383 1228.5,-1377 "/>
<polyline fill="none" stroke="azure" points="1234.5,-1377 1228.5,-1377 "/>
<text text-anchor="middle" x="1127" y="-1361.3" font-family="Lucida Console" font-size="14.00" fill="azure">Send&#45;MailMessageFile.ps1</text>
</g>
<!-- Use&#45;NetMailConfig.ps1 -->
<g id="node49" class="node"><title>Use&#45;NetMailConfig.ps1</title>
<polygon fill="mediumblue" stroke="azure" points="854,-1383 670,-1383 670,-1347 860,-1347 860,-1377 854,-1383"/>
<polyline fill="none" stroke="azure" points="854,-1383 854,-1377 "/>
<polyline fill="none" stroke="azure" points="860,-1377 854,-1377 "/>
<text text-anchor="middle" x="765" y="-1361.3" font-family="Lucida Console" font-size="14.00" fill="azure">Use&#45;NetMailConfig.ps1</text>
</g>
<!-- Send&#45;MailMessageFile.ps1&#45;&gt;Use&#45;NetMailConfig.ps1 -->
<g id="edge37" class="edge"><title>Send&#45;MailMessageFile.ps1&#45;&gt;Use&#45;NetMailConfig.ps1</title>
<path fill="none" stroke="goldenrod" d="M1019.45,-1365C972.318,-1365 917.077,-1365 870.219,-1365"/>
<polygon fill="goldenrod" stroke="goldenrod" points="870.046,-1361.5 860.046,-1365 870.046,-1368.5 870.046,-1361.5"/>
</g>
<!-- Send&#45;SeqScriptEvent.ps1 -->
<g id="node50" class="node"><title>Send&#45;SeqScriptEvent.ps1</title>
<polygon fill="mediumblue" stroke="azure" points="1224,-1437 1024,-1437 1024,-1401 1230,-1401 1230,-1431 1224,-1437"/>
<polyline fill="none" stroke="azure" points="1224,-1437 1224,-1431 "/>
<polyline fill="none" stroke="azure" points="1230,-1431 1224,-1431 "/>
<text text-anchor="middle" x="1127" y="-1415.3" font-family="Lucida Console" font-size="14.00" fill="azure">Send&#45;SeqScriptEvent.ps1</text>
</g>
<!-- Send&#45;SeqEvent.ps1 -->
<g id="node51" class="node"><title>Send&#45;SeqEvent.ps1</title>
<polygon fill="mediumblue" stroke="azure" points="837.5,-1437 686.5,-1437 686.5,-1401 843.5,-1401 843.5,-1431 837.5,-1437"/>
<polyline fill="none" stroke="azure" points="837.5,-1437 837.5,-1431 "/>
<polyline fill="none" stroke="azure" points="843.5,-1431 837.5,-1431 "/>
<text text-anchor="middle" x="765" y="-1415.3" font-family="Lucida Console" font-size="14.00" fill="azure">Send&#45;SeqEvent.ps1</text>
</g>
<!-- Send&#45;SeqScriptEvent.ps1&#45;&gt;Send&#45;SeqEvent.ps1 -->
<g id="edge38" class="edge"><title>Send&#45;SeqScriptEvent.ps1&#45;&gt;Send&#45;SeqEvent.ps1</title>
<path fill="none" stroke="goldenrod" d="M1023.8,-1419C970.111,-1419 904.986,-1419 853.625,-1419"/>
<polygon fill="goldenrod" stroke="goldenrod" points="853.543,-1415.5 843.543,-1419 853.543,-1422.5 853.543,-1415.5"/>
</g>
<!-- Send&#45;SqlReport.ps1 -->
<g id="node52" class="node"><title>Send&#45;SqlReport.ps1</title>
<polygon fill="mediumblue" stroke="azure" points="1203.5,-668 1044.5,-668 1044.5,-632 1209.5,-632 1209.5,-662 1203.5,-668"/>
<polyline fill="none" stroke="azure" points="1203.5,-668 1203.5,-662 "/>
<polyline fill="none" stroke="azure" points="1209.5,-662 1203.5,-662 "/>
<text text-anchor="middle" x="1127" y="-646.3" font-family="Lucida Console" font-size="14.00" fill="azure">Send&#45;SqlReport.ps1</text>
</g>
<!-- Send&#45;SqlReport.ps1&#45;&gt;Use&#45;SqlcmdParams.ps1 -->
<g id="edge39" class="edge"><title>Send&#45;SqlReport.ps1&#45;&gt;Use&#45;SqlcmdParams.ps1</title>
<path fill="none" stroke="goldenrod" d="M1044.28,-649.875C1015.17,-653.118 983.351,-660.713 958,-677 933.733,-692.591 946.173,-715.263 922,-731 905.349,-741.84 885.663,-748.711 865.984,-752.99"/>
<polygon fill="goldenrod" stroke="goldenrod" points="865.164,-749.584 856.024,-754.944 866.511,-756.453 865.164,-749.584"/>
</g>
<!-- Set&#45;ConsoleColorTheme.ps1 -->
<g id="node53" class="node"><title>Set&#45;ConsoleColorTheme.ps1</title>
<polygon fill="mediumblue" stroke="azure" points="1232.5,-1491 1015.5,-1491 1015.5,-1455 1238.5,-1455 1238.5,-1485 1232.5,-1491"/>
<polyline fill="none" stroke="azure" points="1232.5,-1491 1232.5,-1485 "/>
<polyline fill="none" stroke="azure" points="1238.5,-1485 1232.5,-1485 "/>
<text text-anchor="middle" x="1127" y="-1469.3" font-family="Lucida Console" font-size="14.00" fill="azure">Set&#45;ConsoleColorTheme.ps1</text>
</g>
<!-- Set&#45;ConsoleColors.ps1 -->
<g id="node54" class="node"><title>Set&#45;ConsoleColors.ps1</title>
<polygon fill="mediumblue" stroke="azure" points="854,-1491 670,-1491 670,-1455 860,-1455 860,-1485 854,-1491"/>
<polyline fill="none" stroke="azure" points="854,-1491 854,-1485 "/>
<polyline fill="none" stroke="azure" points="860,-1485 854,-1485 "/>
<text text-anchor="middle" x="765" y="-1469.3" font-family="Lucida Console" font-size="14.00" fill="azure">Set&#45;ConsoleColors.ps1</text>
</g>
<!-- Set&#45;ConsoleColorTheme.ps1&#45;&gt;Set&#45;ConsoleColors.ps1 -->
<g id="edge40" class="edge"><title>Set&#45;ConsoleColorTheme.ps1&#45;&gt;Set&#45;ConsoleColors.ps1</title>
<path fill="none" stroke="goldenrod" d="M1015.05,-1473C968.954,-1473 915.736,-1473 870.358,-1473"/>
<polygon fill="goldenrod" stroke="goldenrod" points="870.204,-1469.5 860.204,-1473 870.204,-1476.5 870.204,-1469.5"/>
</g>
<!-- Test&#45;Xml.ps1 -->
<g id="node57" class="node"><title>Test&#45;Xml.ps1</title>
<polygon fill="mediumblue" stroke="azure" points="1179,-1545 1069,-1545 1069,-1509 1185,-1509 1185,-1539 1179,-1545"/>
<polyline fill="none" stroke="azure" points="1179,-1545 1179,-1539 "/>
<polyline fill="none" stroke="azure" points="1185,-1539 1179,-1539 "/>
<text text-anchor="middle" x="1127" y="-1523.3" font-family="Lucida Console" font-size="14.00" fill="azure">Test&#45;Xml.ps1</text>
</g>
<!-- Resolve&#45;XmlSchemaLocation.ps1 -->
<g id="node58" class="node"><title>Resolve&#45;XmlSchemaLocation.ps1</title>
<polygon fill="mediumblue" stroke="azure" points="887,-1545 637,-1545 637,-1509 893,-1509 893,-1539 887,-1545"/>
<polyline fill="none" stroke="azure" points="887,-1545 887,-1539 "/>
<polyline fill="none" stroke="azure" points="893,-1539 887,-1539 "/>
<text text-anchor="middle" x="765" y="-1523.3" font-family="Lucida Console" font-size="14.00" fill="azure">Resolve&#45;XmlSchemaLocation.ps1</text>
</g>
<!-- Test&#45;Xml.ps1&#45;&gt;Resolve&#45;XmlSchemaLocation.ps1 -->
<g id="edge44" class="edge"><title>Test&#45;Xml.ps1&#45;&gt;Resolve&#45;XmlSchemaLocation.ps1</title>
<path fill="none" stroke="goldenrod" d="M1068.96,-1527C1024.54,-1527 960.98,-1527 903.54,-1527"/>
<polygon fill="goldenrod" stroke="goldenrod" points="903.266,-1523.5 893.266,-1527 903.266,-1530.5 903.266,-1523.5"/>
</g>
</g>
</svg>
